#!OML:ASF E:/inclinewalkrobotboard/Project1/Captureday1/Session1/subject1.ASF
:FULLY-SPECIFIED
:DEGREES
13
root 0 0 0 10.585575138900522 24.66854761372205 -11.331294689592687
lowerback 10.2924580756344 2.760050001085329 0.7250850866436478
upperback 1.4249645635385215 3.5377667237276866 -1.7260327854120399
thorax -4.23189018571316 1.8287502276066472 -2.5054436417869095
lowerneck -9.244434899915689 -5.177086940880735 -7.665787155272657
upperneck 2.9613741131940188 -6.038249331343982 5.531133017245944
head 3.4686126840518376 -2.837153869051646 2.7311669497645825
rclavicle -1.1167946781465473E-14 4.247488202971704E-16
rhumerus 8.946679022896358 -13.835695110920584 -63.79765504862693
rradius 20.203946125913035
rwrist 55.783401291502514
rhand -7.821582253938786 21.560202875002645
rfingers 7.1250199999999255
rthumb 18.077174479517172 -8.166396271110827
lclavicle -5.314210397027035E-15 6.724236340640765E-15
lhumerus -18.116937846625422 9.414556329945999 72.26063412427571
lradius 37.65038695890557
lwrist -36.14360768644609
lhand -10.993399103236868 14.359280741950684
lfingers 7.0522136687104275
lthumb 14.742562793380566 69.57308810516187
rfemur 14.696323846898565 8.783465541899886 37.21556180017401
rtibia 23.72710482775522
rfoot -18.568312520960045 -3.4310584521806398
rtoes -1.9794825855184546
lfemur -34.05307285903207 -4.271840435625919 -12.890378384736733
ltibia 15.298279334060485
lfoot -10.556478330278225 10.550641108095888
ltoes 10.778623803938334
14
root 0 0 0 3.6203775994795824 16.541768402083793 -1.653963812519339
lowerback 6.916386272824451 0.7469331478045426 -0.9722153721724539
upperback 1.0810477247035029 0.9454582011479367 -0.9669966059662263
thorax -2.7114155418215082 0.5080242303627248 -0.45272481363688627
lowerneck -8.933977093968707 -2.8267567471250428 -7.156908311513194
upperneck 12.926160013781272 -3.5758718349378853 4.601989720017911
head 6.022803870823541 -1.5612721025876497 2.452066964998938
rclavicle -6.786837369491161E-15 9.5510341296161E-16
rhumerus 4.643119198306691 -5.270576287385376 -64.30019466178408
rradius 54.48704114429996
rwrist 30.77134786133864
rhand -21.686707712246456 9.040471010065076
rfingers 7.12502000000002
rthumb 4.684285363415949 -20.6947388768083
lclavicle -1.2487279433814346E-15 3.5201924603516817E-16
lhumerus 2.3327434158327254 3.6723565032007635 63.54889572178641
lradius 51.742575333275646
lwrist -12.29521306355263
lhand -17.970142998224052 23.857059699804513
lfingers 7.126148551250993
lthumb 8.315740475163121 58.31915816412922
rfemur -7.7822440333943845 3.9922206934000926 26.91492474940565
rtibia 43.133062493786376
rfoot -3.8867723274228982 -4.39192169552882
rtoes 0.09346825751363141
lfemur -9.67475981726262 -3.1893492897780344 -22.24960685238917
ltibia 22.207496743493518
lfoot -7.693233300204836 -1.9313078192454345
ltoes 1.2742779622081892
15
root 0 0 0 -1.4217761971362517 16.186771927221482 1.5678410265722087
lowerback 5.767311513664432 -0.3315528358628095 -2.191287723256027
upperback 0.9102460360411495 -0.4949394659091856 -0.5936091263830958
thorax -2.199802529135944 -0.22283723888138324 0.780238264223275
lowerneck -9.598483626906553 -1.1955649613528916 -6.597313734576368
upperneck 18.669714589884734 -1.4878090862497144 2.8428532926274723
head 7.690652928986128 -0.5845250365590453 1.9042974521135623
rclavicle -4.400693531764161E-15 2.508441575390888E-15
rhumerus -8.964712325846872 -2.1774564931041187 -69.73138890965146
rradius 61.53131633651675
rwrist 29.992084475079785
rhand -23.445729796378274 9.549439855485668
rfingers 7.125020000000024
rthumb 3.0008302868909897 -20.1842007166604
lclavicle -3.247852112775667E-16 3.299024857460332E-15
lhumerus 3.351424433902295 3.2788700849853107 63.36863132711858
lradius 53.331529077917864
lwrist -11.866171987349258
lhand -19.574787666011737 23.693681777418867
lfingers 7.128153628802423
lthumb 6.755995643490319 59.76911052941077
rfemur -13.211710844218498 3.1565845679969415 25.788209406134765
rtibia 47.42869053652308
rfoot 0.9303726863411761 -3.655955960410573
rtoes 6.305271642685245
lfemur -4.110742479673341 -3.026986195956635 -23.90844402113806
ltibia 26.597712027507953
lfoot -4.218314409336893 -5.724762412455476
ltoes 1.113546700971268
16
root 0 0 0 -4.773501923496186 15.409771048213685 2.339212547167781
lowerback 5.351339277466953 -1.2380220105506567 -3.0672077431983613
upperback 0.5085575868667767 -1.7364490718260113 -0.17525599989171042
thorax -2.33452670270308 -0.8465047165821591 1.8239695585536118
lowerneck -11.670489625923803 0.17817897828096774 -6.140436589028827
upperneck 22.747804908369083 0.483482830348958 1.0901808448867074
head 9.148578983436405 0.3239175049035583 1.363152629672175
rclavicle -5.290971399787143E-15 1.5240454964058744E-15
rhumerus -13.12832714312006 -10.47161049309621 -71.42524005890388
rradius 56.59694715844253
rwrist 36.34256320638764
rhand -20.259568702042888 14.949537665002774
rfingers 7.125019999999973
rthumb 6.101711009633636 -14.703889722935997
lclavicle 3.2385672017467816E-15 3.1724315416109363E-15
lhumerus -1.4722891559148383 7.5436634105862375 64.54243333635623
lradius 47.822668842134036
lwrist -19.45010104665841
lhand -19.65599045207695 20.65618329407704
lfingers 7.113162698546717
lthumb 6.624615478363591 63.13550011115392
rfemur -14.16747034125121 2.467764407493239 24.801932841653162
rtibia 56.11367209975973
rfoot 6.604090498815797 -2.59426473803415
rtoes 13.004117448975494
lfemur 2.8841287125436867 -2.8889781455299683 -26.850043814110997
ltibia 27.398388248026674
lfoot -6.99080198306344 -5.231393266848258
ltoes 2.367940118990389
